<?xml version="1.0" standalone="no"?>
<!DOCTYPE svg PUBLIC "-//W3C//DTD SVG 1.1//EN" "http://www.w3.org/Graphics/SVG/1.1/DTD/svg11.dtd" >
<svg xmlns="http://www.w3.org/2000/svg">
<metadata>Generated by IcoMoon</metadata>
<defs>
<font id="icomoon" horiz-adv-x="1024">
<font-face units-per-em="1024" ascent="960" descent="-64" />
<missing-glyph horiz-adv-x="1024" />
<glyph unicode="&#x20;" horiz-adv-x="512" d="" />
<glyph unicode="&#xe900;" glyph-name="add" d="M475.429 484.571h-438.984c-20.36 0-36.445-16.374-36.445-36.571 0-20.339 16.317-36.571 36.445-36.571h438.984v-438.984c0-20.36 16.374-36.445 36.571-36.445 20.339 0 36.571 16.317 36.571 36.445v438.984h438.984c20.36 0 36.445 16.374 36.445 36.571 0 20.339-16.317 36.571-36.445 36.571h-438.984v438.984c0 20.36-16.374 36.445-36.571 36.445-20.339 0-36.571-16.317-36.571-36.445v-438.984z" />
<glyph unicode="&#xe901;" glyph-name="delete" d="M605.411 198.481c-17.218 0-31.134 13.916-31.134 31.134v342.516c0 17.218 13.916 31.14 31.134 31.14s31.14-13.922 31.14-31.14v-342.516c0-17.218-13.922-31.134-31.14-31.134v0zM418.589 198.481c-17.224 0-31.14 13.916-31.14 31.134v342.516c0 17.218 13.916 31.14 31.14 31.14 17.218 0 31.134-13.922 31.134-31.14v-342.516c0-17.218-13.916-31.134-31.134-31.134v0zM916.786 727.818h-155.688v62.274c0 51.503-41.569 93.414-92.696 93.414h-312.093c-51.497 0-93.408-41.91-93.408-93.414v-62.274h-155.688c-17.224 0-31.14-13.916-31.14-31.14 0-17.218 13.916-31.134 31.14-31.134h809.573c17.218 0 31.14 13.916 31.14 31.134 0 17.224-13.922 31.14-31.14 31.14v0zM325.175 790.092c0 17.157 13.978 31.14 31.134 31.14h312.093c17.067 0 30.422-13.67 30.422-31.14v-62.274h-373.649v62.274zM730.088 11.653h-435.99c-51.499 0-93.409 41.91-93.409 93.414v467.529c0 17.19 13.95 31.139 31.135 31.139 17.19 0 31.139-13.949 31.139-31.139v-467.529c0-17.19 13.979-31.14 31.135-31.14h435.99c17.185 0 31.135 13.95 31.135 31.14v466.256c0 17.185 13.921 31.135 31.139 31.135 17.219 0 31.14-13.95 31.14-31.135v-466.256c0-51.503-41.915-93.414-93.414-93.414v0z" />
<glyph unicode="&#xe902;" glyph-name="iconfont-down" d="M35.74 647.84l486.4-486.4 486.4 486.4-87.6 87.5-398.8-398.8-398.8 398.8-87.6-87.5z" />
<glyph unicode="&#xe903;" glyph-name="iconfont-left" d="M721.54 934.84l-486.4-486.4 486.4-486.4 87.5 87.6-398.8 398.8 398.8 398.8-87.5 87.6z" />
<glyph unicode="&#xe904;" glyph-name="iconfont-right" d="M322.64-37.96l486.4 486.4-486.4 486.4-87.5-87.6 398.8-398.8-398.8-398.8 87.5-87.6z" />
<glyph unicode="&#xe905;" glyph-name="iconfont-up" d="M1008.44 249.040l-486.4 486.4-486.4-486.4 87.6-87.5 398.8 398.8 398.8-398.8 87.6 87.5z" />
<glyph unicode="&#xe906;" glyph-name="mic" d="M511.721 241.78c99.677 0 180.759 81.338 180.759 181.295v355.188c0 99.98-81.082 181.341-180.759 181.341-99.654 0-180.713-81.361-180.713-181.341v-355.165c0-99.98 81.082-181.318 180.713-181.318v0 0zM798.836 549.050c-10.822 0-19.642-8.844-19.642-19.735v-112.524c0-147.945-119.994-268.311-267.473-268.311-147.456 0-267.45 120.39-267.45 268.311v112.524c0 10.892-8.82 19.735-19.665 19.735s-19.665-8.844-19.665-19.735v-112.524c0-163.025 127.139-296.518 287.139-306.781l0.023-134.935h-168.262c-10.868 0-19.665-8.844-19.665-19.735s8.82-19.712 19.665-19.712h375.855c10.845 0 19.665 8.844 19.665 19.712 0 10.892-8.82 19.735-19.665 19.735h-168.262l-0.023 134.935c159.977 10.263 287.116 143.756 287.116 306.781v112.524c0 10.892-8.797 19.735-19.689 19.735v0 0z" />
<glyph unicode="&#xe907;" glyph-name="phone" d="M789.483 17.615h-6.778c-116.94 0-353.884 117.783-469.49 233.379-115.608 115.617-233.391 352.561-233.391 469.512v6.776l3.761 5.64c28.167 42.255 125.017 180.083 188.751 180.083 53.198 0 162.081-98.874 194.161-176.303 19.499-47.064 6.308-74.237-8.209-88.751-23.499-23.499-46.999-38.016-65.886-49.688-30.453-18.824-40.977-26.43-40.977-47.897 0-47.435 54.323-101.76 106.863-154.29 52.575-52.573 106.876-106.874 154.29-106.874 21.478 0 29.073 10.537 47.897 40.989 11.674 18.886 26.199 42.385 49.699 65.886 11.75 11.761 27.467 17.97 45.437 17.97 81.734 0 219.607-139.010 219.607-203.935 0-63.723-137.851-160.584-180.095-188.74l-5.639-3.759z" />
<glyph unicode="&#xe908;" glyph-name="scan" d="M928 416h-832c-17.664 0-32 14.336-32 32s14.336 32 32 32h832c17.696 0 32-14.336 32-32s-14.304-32-32-32zM832 32h-192c-17.696 0-32 14.304-32 32s14.304 32 32 32h192c17.664 0 32 14.336 32 32v160c0 17.696 14.304 32 32 32s32-14.304 32-32v-160c0-52.928-43.072-96-96-96zM352 32h-160c-52.928 0-96 43.072-96 96v160c0 17.696 14.336 32 32 32s32-14.304 32-32v-160c0-17.664 14.368-32 32-32h160c17.664 0 32-14.304 32-32s-14.336-32-32-32zM128 576c-17.664 0-32 14.336-32 32v160c0 52.928 43.072 96 96 96h160c17.664 0 32-14.336 32-32s-14.336-32-32-32h-160c-17.632 0-32-14.368-32-32v-160c0-17.664-14.336-32-32-32zM896 576c-17.696 0-32 14.336-32 32v160c0 17.632-14.336 32-32 32h-192c-17.696 0-32 14.336-32 32s14.304 32 32 32h192c52.928 0 96-43.072 96-96v-160c0-17.664-14.304-32-32-32z" />
<glyph unicode="&#xe909;" glyph-name="signal" d="M358.399 560.013l-118.883-109.673 118.883-109.72c0 0 45.72 54.883 45.72 109.72 0 54.881-45.72 109.673-45.72 109.673zM504.724 697.185l-64.023-63.976c0 0 73.14-54.917 73.14-182.87 0-127.999-73.14-182.881-73.14-182.881l64.023-64c0 0 100.581 118.882 100.581 246.881 0 127.953-100.581 246.846-100.581 246.846zM788.182 450.34c0 210.287-155.462 384.028-155.462 384.028l-63.999-63.976c0 0 128.021-128.020 128.021-320.052 0-192.044-128.021-320.041-128.021-320.041l63.999-63.999c0.001-0.001 155.462 173.716 155.462 384.040z" />
<glyph unicode="&#xe90a;" glyph-name="star1" d="M951.9 488.2l-165.9-142.1c-10.4-10.2-15.2-24.8-12.7-39.2l39.2-228.3c3.1-18.1 0-31.1-14.8-41.9-8.4-6.1-18.4-9.2-28.4-9.2-7.7 0-15.4 1.8-22.4 5.5l-209.5 112.9c-12.9 6.8-28.3 6.8-41.2 0l-200.7-112.9c-16.3-8.6-35.9-7.1-50.8 3.7s-26.7 23.8-23.6 41.9l48 233c2.5 14.4-2.3 29-12.7 39.2l-174.7 137.4c-13.2 12.8-17.9 32-12.3 49.4 5.7 17.5 20.8 30.2 39 32.8l227.2 39.9c14.4 2.1 26.9 11.2 33.3 24.2l104.6 220.9c8.1 16.5 24.9 26.9 43.2 26.9 18.4 0 35.1-10.4 43.3-26.9l100.5-220.7c6.5-13.1 18.9-22.1 33.4-24.2l231.3-39.9c18.1-2.6 33.3-15.4 38.9-32.8 5.7-17.6 0.9-36.8-12.2-49.6z" />
<glyph unicode="&#xe90b;" glyph-name="star2" d="M959 565.3c-7.8 22.4-27.6 38.8-51.6 42.4l-233.2 34.7-101.4 210.4c-10.6 22.1-33.5 36.3-58.6 36.3-25 0-47.9-14.2-58.6-36.3l-101.4-210.5-233.2-34.7c-24-3.6-43.8-20-51.6-42.4-7.7-22.4-1.9-47.1 15.1-64l170.8-170.7-39.7-236.7c-4-23.8 6.3-47.8 26.6-61.7 11.1-7.7 24.2-11.5 37.3-11.5 10.8 0 21.6 2.6 31.3 7.8l203.3 109.5 203.4-109.5c9.8-5.3 20.5-7.8 31.3-7.8 13.1 0 26.1 3.9 37.3 11.5 20.2 13.9 30.5 37.9 26.5 61.7l-39.6 236.7 171 170.7c16.9 16.9 22.6 41.6 15 64.1v0zM738.3 375.7l-28.5-28.4 6.6-39.7 39.6-236.3-241.8 130.3-37-20-205-110.3 39.6 236.3 6.6 39.7-28.4 28.4-169.5 169.2 273.4 40.6 17.9 37.2 102.3 212.2 102.3-212.2 18-37.2 273.4-40.6-169.5-169.2z" />
<glyph unicode="&#xe90c;" glyph-name="map_iocn" d="M512 945.57c49.611 0 96.22-9.416 139.848-28.21 43.61-18.812 81.422-44.228 113.439-76.226 32.805-32.824 58.614-70.826 77.427-114.040 18.795-43.215 28.21-89.637 28.21-139.248 0-67.223-18.812-139.848-56.421-217.875-37.626-78.028-78.832-150.258-123.644-216.675-44.828-66.436-104.437-143.655-178.863-231.681-74.426 88.024-134.051 165.245-178.863 231.681-44.828 66.416-86.035 138.648-123.644 216.675-37.626 78.028-56.421 150.652-56.421 217.875 0 49.611 9.397 96.033 28.21 139.248 18.795 43.215 44.603 81.216 77.427 114.040 31.998 31.998 69.811 57.413 113.439 76.226 43.612 18.795 90.221 28.21 139.851 28.21zM512 459.404c17.593 0 34.212 3.395 49.817 10.204 15.607 6.791 28.997 15.793 40.214 27.009 12.004 12.004 21.401 25.809 28.21 41.414 6.791 15.607 10.204 32.205 10.204 49.817 0 17.593-3.414 34.212-10.204 49.817-6.808 15.607-16.206 28.997-28.21 40.214-11.217 12.004-24.608 21.196-40.214 27.611-15.607 6.396-32.224 9.603-49.817 9.603-17.612 0-34.212-3.208-49.817-9.603-15.607-6.415-29.016-15.607-40.214-27.611-12.004-11.217-21.42-24.608-28.21-40.214-6.808-15.607-10.204-32.224-10.204-49.817 0-17.612 3.395-34.212 10.204-49.817 6.791-15.607 16.206-29.41 28.21-41.414 11.197-11.217 24.608-20.22 40.214-27.009 15.604-6.81 32.205-10.204 49.817-10.204z" />
<glyph unicode="&#xe90d;" glyph-name="message" d="M553.122 904.434c-15.635 7.61-34.092 5.094-47.37-6.321l-256.051-220.56-204.247 0.855c-11.743 0-23.062-4.808-31.374-13.414-8.392-8.61-13.137-20.326-13.137-32.582l-0.928-368.6c0-12.264 4.642-24.010 12.995-32.657 8.314-8.722 19.668-13.559 31.516-13.559h206.501l254.762-219.748c8.137-7.018 18.31-10.639 28.485-10.639 6.425 0 12.85 1.441 18.884 4.362 15.635 7.566 25.627 23.825 25.627 41.707v829.442c0 17.846-9.992 34.098-25.664 41.714v0 0 0zM725.744 674.048c-21.95 10.749-48.040 0.959-58.711-21.651-10.638-22.689-1.435-50.138 20.338-61.478 2.828-1.515 69.503-37.386 69.503-139.54 0-109.127-62.358-145.296-64.428-146.481-21.993-11.378-30.916-39.094-19.923-61.851 7.854-16.177 23.526-25.485 39.913-25.485 6.669 0 13.491 1.551 19.845 4.836 4.64 2.437 113.624 60.812 113.624 228.983 0 162.26-115.267 220.267-120.159 222.669v0 0 0zM864.354 809.37c-20.521 13.638-47.759 7.427-61.183-13.777-13.346-21.207-7.494-49.727 12.922-63.691 4.819-3.292 118.872-83.72 118.872-283.918 0-200.645-109.41-281.154-113.765-284.22-20.492-14.145-25.987-42.702-12.351-63.909 8.563-13.301 22.702-20.509 37.085-20.509 8.459 0 17.064 2.553 24.668 7.763 6.25 4.287 153.384 108.689 153.384 360.911 0 252.698-153.103 357.033-159.632 361.351v0 0 0z" />
<glyph unicode="&#xe90e;" glyph-name="person" d="M0.040 135.915c13.502 39.053 42.054 65.543 74.508 88.563 25.606 18.161 52.799 33.771 81.030 47.465 20.378 9.883 40.691 20.271 62.334 26.944 24.784 7.639 35.87 26.082 42.595 48.729 3.675 12.375 3.169 25.163 1.417 37.751-1.293 9.265-4.834 17.511-11.41 24.952-48.2 54.561-76.633 118.493-85.471 190.446-6.422 52.273-0.889 103.445 26.739 149.908 33.335 56.058 84.181 84.307 148.233 88.166 70.138 4.227 129.451-18.72 172.066-76.613 28.833-39.167 38.437-84.524 37.301-132.33-1.609-67.786-25.616-128.137-62.999-183.716-6.872-10.214-13.609-21.171-22.747-29.085-25.269-21.902-21.2-82.659-2.553-104.136 4.586-5.286 9.94-8.529 16.381-10.802 52.641-18.599 103.425-41.152 149.927-72.406 25.313-17.015 47.8-36.901 66.223-61.764 19.184-25.896 20.739-92.163-0.208-114.78-15.859-17.125-34.371-29.317-55.516-38.077-41.058-17.005-84.437-24.109-128.193-29.451-27.178-3.316-54.531-4.378-81.836-6.070-1.878-0.119-4.11 0.471-5.151-1.949-5.343 0-10.685 0-16.025 0-8.297 2.168-16.748 0.456-25.115 1.001-20.792 0-41.582 0-62.365 0-9.743 0-19.49 0-29.23 0-57.727 1.094-115.561 1.105-171.993 16.094-28.092 7.463-55.81 15.71-80.253 32.379-10.049 6.855-18.242 15.486-26.59 24.109-9.458 9.767-8.75 22.628-11.098 34.586 0.002 16.697 0.002 33.391 0.002 50.084zM318.283-20.639c21.513-0.003 43.030-0.008 64.543-0.012 0.463-0.333 0.927-0.665 1.39-1-0.522-0.226-1.048-0.456-1.571-0.684-21.367 0-42.735 0-64.101 0-1.509 0.346-1.594 0.911-0.26 1.695zM382.644-22.334c0.053 0.562 0.112 1.123 0.18 1.683 7.941-0.713 16.175 2.713 23.859-1.683-8.013 0-16.025 0-24.040 0zM1023.932 314.273c0.008-10.067 0.020-20.138 0.028-30.205-1.962-31.099-20.966-50.032-46.207-64.357-31.246-17.736-65.765-25.297-100.602-31.514-30.553-5.455-61.421-8.494-92.407-10.301-4.352-0.252-8.158-0.825-10.538 4.698-19.558 45.42-53.884 78.13-93.186 106.152-44.482 31.719-93.152 55.691-143.891 75.616-10.416 4.088-10.448 4.203-3.358 13.282 46.401 59.402 77.955 125.727 90.045 200.287 11.922 73.5 3.223 144.267-34.493 209.842-13.223 22.994-29.673 43.623-50.041 60.692-6.808 5.706-6.875 10.291-3.268 17.7 28.214 57.994 75.287 88.324 138.558 94.257 98.554 9.24 177.603-55.072 189.077-152.914 10.099-86.155-11.844-163.746-61.84-233.96-2.126-2.981-4.297-6.047-6.971-8.496-14.846-13.604-17.83-31.419-17.718-50.137 0.102-17.077 6.875-26.677 22.994-32.437 38.332-13.701 76.002-28.952 111.558-48.859 32.974-18.461 64.841-38.594 89.36-68.198 12.337-14.905 21.487-31.317 22.898-51.15z" />
<glyph unicode="&#xe90f;" glyph-name="detail" d="M155.537 17.116v896.372h502.432v-228.768h239.54v-667.603h-741.972zM806.609 597.311h-561.954v-57.714h561.954v57.715zM806.609 453.028h-561.954v-57.717h561.954v57.716zM806.609 308.736h-561.954v-57.717h561.954v57.717zM806.609 164.448h-561.954v-57.713h561.954v57.713zM687.118 913.489h28.197l182.195-167.798v-32.531h-210.392v200.329z" />
<glyph unicode="&#xe910;" glyph-name="item" d="M714.147 157.454h8.557v-21.393h-8.557v21.393zM322.833 941.673h-226.483c-40.075 0-72.561-32.487-72.561-72.561v-226.504c0-86.985 70.516-157.501 157.501-157.501h299.044v299.064c0 86.985-70.516 157.501-157.501 157.501zM707.554 941.673c-86.986 0-157.501-70.516-157.501-157.501v-226.504c0-40.075 32.487-72.561 72.561-72.561h226.482c86.985 0 157.501 70.516 157.501 157.501v299.064h-299.043zM965.665 642.607c0-31.137-12.125-60.41-34.143-82.426-22.017-22.017-51.29-34.143-82.426-34.143h-226.483c-17.44 0-31.628 14.188-31.628 31.628v226.505c0 31.137 12.125 60.41 34.143 82.426 22.017 22.017 51.29 34.143 82.426 34.143h258.112v-258.133zM23.789 262.263v-226.504c0-40.075 32.487-72.561 72.561-72.561h226.482c86.985 0 157.501 70.516 157.501 157.501v299.065h-299.043c-86.985 0-157.501-70.516-157.501-157.502zM849.097 419.765h-299.044v-299.064c0-86.985 70.516-157.501 157.501-157.501h226.482c40.075 0 72.561 32.487 72.561 72.561v226.503c0.001 86.986-70.515 157.502-157.5 157.502zM714.147 157.454h8.557v-21.393h-8.557v21.393zM714.147 157.454h8.557v-21.393h-8.557v21.393z" />
<glyph unicode="&#xe911;" glyph-name="order" d="M672.376 959.993h-577.278l-6.469-1023.963h806.030v799.517l-222.283 224.447zM182.483 46.089l1.082 789.802h448.849l169.406-171.547 1.104-618.255h-620.441zM276.36 529.468h442.38v74.448h-443.462zM276.36 397.838h442.38v74.448h-443.462zM276.36 278.042h442.38v74.47h-443.462z" />
<glyph unicode="&#xe912;" glyph-name="rocket" d="M941.979 811.228c-2.428-78.961-19.472-154.859-47.926-228.39-34.044-87.982-83.842-165.41-153.644-229.387-5.665-5.188-7.439-10.751-6.69-18.068 2.415-23.668 4.351-47.384 6.788-71.047 5.684-55.195-13.646-100.36-58.144-132.417-47.724-34.382-97.376-66.115-146.635-98.317-31.041-20.295-69.194-1.876-72.651 34.939-3.968 42.284-7.088 84.652-10.031 127.019-1.47 21.202-0.898 21.389-21.423 24.094-54.513 7.191-97.171 33.053-126.462 80.019-15.069 24.164-22.54 50.893-25.161 78.963-0.786 8.421-4.177 10.573-12.117 11.013-44.098 2.438-88.193 5.048-132.235 8.375-36.627 2.769-55.21 41.394-35.575 73.638 13.801 22.658 28.477 44.782 42.719 67.168 15.34 24.108 30.578 48.281 45.956 72.361 28.141 44.066 68.712 67.87 120.642 68.287 29.736 0.238 59.533-5.006 89.251-8.206 5.633-0.608 9.619 0.164 13.506 4.51 69.006 77.128 154.402 129.185 251.086 164.016 54.649 19.686 110.883 32.538 168.581 38.49 29.077 2.999 58.369 4.102 87.422-1.283 15.831-2.933 16.64-3.583 19.078-19.045 2.435-15.455 4.372-30.988 3.665-46.732v0zM804.201 616.472c0.83 67.446-55.036 125.459-121.428 126.556-68.973 1.139-128.684-48.997-130.326-127.29-1.377-65.3 57.775-124.439 123.779-124.906 70.308-0.497 127.101 55.266 127.975 125.64v0zM215.187 331.402c13.057-0.178 20.286-5.937 24.964-19.271 18.348-52.258 51.729-91.912 100.132-118.776 10.681-5.927 21.933-10.737 33.564-14.704 20.913-7.131 25.684-27.5 10.166-43.173-22.971-23.197-46.19-46.139-69.161-69.325-7.593-7.669-15.949-11.294-26.639-7.326-10.85 4.033-16.085 12.070-16.632 23.308-0.346 7.125-0.169 14.274-0.337 21.412-0.309 13.115-0.431 13.222-12.501 9.227-25.811-8.553-51.589-17.184-77.395-25.737-7.611-2.521-15.246-3.569-22.69 0.646-10.914 6.181-15.032 17.231-10.639 30.827 8.571 26.512 17.572 52.889 26.334 79.341 3.804 11.476 3.57 11.729-8.823 11.92-7.481 0.117-14.971-0.010-22.437 0.351-10.873 0.523-18.62 5.792-22.648 16.085-3.931 10.034-1.418 18.769 5.923 26.156 23.968 24.113 48.042 48.123 72.108 72.147 4.791 4.781 10.48 7.49 16.711 6.892v0z" />
<glyph unicode="&#xe913;" glyph-name="sand" d="M936.851 872.851h-65.362v-108.937c0-137.23-63.519-260.473-172.582-327.299 109.068-66.778 172.582-189.058 172.582-326.323v-87.149h65.362c22.34 0 42.999-15.57 42.999-44.935 0-23.289-18.132-42.204-40.472-42.204h-855.342c-22.335 0-40.46 18.915-40.46 42.216 0 23.289 15.826 44.923 43.564 44.923h65.362v87.149c0 137.26 67.746 259.54 176.809 326.342-109.065 66.825-176.811 190.056-176.811 327.279v108.937h-65.362c-22.347 0-43.001 21.637-43.001 44.945 0 23.291 20.654 42.206 43.001 42.206l4.413-0.007h848.394c22.328 0 40.479-20.272 40.479-43.568 0-23.303-21.246-43.575-43.575-43.575zM784.338 872.851h-544.686v-108.937c0-135.448 71.798-253.305 197.796-286.35 5.228-1.377 9.964-3.758 14.058-6.898 0.061-0.043 0.121-0.084 0.176-0.133 0.335-0.249 0.65-0.517 0.966-0.77 0.242-0.2 0.486-0.399 0.724-0.601 0.14-0.121 0.278-0.249 0.425-0.375 6.212-5.478 10.912-12.967 13.066-21.859 2.29-9.498 1.295-19.041-2.227-27.344-0.038-0.084-0.073-0.169-0.109-0.254-0.189-0.425-0.372-0.86-0.579-1.278-0.096-0.212-0.198-0.416-0.302-0.631-0.15-0.314-0.309-0.63-0.474-0.944-0.195-0.377-0.393-0.746-0.601-1.116-0.097-0.164-0.176-0.309-0.261-0.466-0.657-1.133-1.355-2.236-2.103-3.284-0.019-0.026-0.036-0.048-0.048-0.073-0.36-0.495-0.717-0.981-1.094-1.466-0.053-0.073-0.114-0.147-0.176-0.218-0.34-0.432-0.681-0.857-1.033-1.266-0.079-0.092-0.159-0.183-0.237-0.266-0.352-0.415-0.71-0.802-1.073-1.195-0.080-0.080-0.152-0.159-0.225-0.242-0.418-0.437-0.845-0.876-1.282-1.29-0.026-0.019-0.036-0.031-0.055-0.055-0.954-0.91-1.937-1.763-2.963-2.57-0.049-0.038-0.111-0.080-0.159-0.116-0.474-0.369-0.947-0.725-1.432-1.072-0.043-0.031-0.097-0.067-0.14-0.097-4.318-3.046-9.194-5.236-14.355-6.362-125.228-33.597-196.284-150.089-196.284-285.029v-87.149h544.686v87.149c0 135.472-72.301 252.363-198.267 285.373-0.657 0.171-1.307 0.352-1.944 0.565-0.188 0.055-0.358 0.119-0.541 0.183-0.377 0.126-0.758 0.254-1.135 0.393-0.335 0.114-0.655 0.242-0.978 0.375-0.195 0.073-0.389 0.152-0.577 0.23-5.082 2.104-9.571 5.202-13.31 9.025-0.061 0.060-0.121 0.121-0.183 0.181-0.275 0.287-0.541 0.57-0.809 0.869-0.176 0.195-0.352 0.381-0.527 0.58-0.195 0.224-0.384 0.449-0.579 0.679-0.254 0.299-0.51 0.608-0.753 0.915-0.121 0.152-0.242 0.297-0.357 0.449-0.36 0.468-0.71 0.94-1.063 1.423 0 0.014-0.007 0.019-0.019 0.032-1.51 2.144-2.848 4.448-3.965 6.914-0.014 0.017-0.019 0.036-0.031 0.061-0.256 0.563-0.498 1.132-0.73 1.72-0.029 0.061-0.061 0.121-0.084 0.181-0.213 0.546-0.415 1.092-0.608 1.644-0.031 0.085-0.060 0.169-0.097 0.261-0.188 0.544-0.364 1.103-0.532 1.661-0.019 0.073-0.049 0.152-0.073 0.23-0.2 0.691-0.396 1.381-0.57 2.089-0.116 0.48-0.2 0.957-0.305 1.437-0.029 0.14-0.060 0.287-0.096 0.42-0.097 0.544-0.188 1.077-0.273 1.616-0.026 0.147-0.049 0.278-0.073 0.418-0.092 0.608-0.159 1.2-0.225 1.806 0 0.073-0.019 0.14-0.026 0.212-2.096 20.581 10.585 40.125 30.368 45.281 126.041 33.096 198.359 150.951 198.359 286.399v108.937zM569.378 540.735c-23.543-6.139-43.501-20.282-57.511-38.979-4.362 5.808-9.325 11.185-14.846 16.053l-2.884 2.441-2.266 2.043-2.633 1.766c-10.6 7.74-22.415 13.356-35.139 16.708-65.26 17.116-113.712 67.451-135.791 135.996h387.302c-22.168-68.499-70.787-118.844-136.231-136.028zM490.515 295.562c0 0 3.743 3.053 3.862 3.142l0.519 0.37 2.427 2.029 0.398 0.381c1.708 1.493 3.36 3.062 4.972 4.727l2.145 2.246 2.929 3.424 2.956 3.767c0 0 0.992 1.468 1.038 1.541l5.994-9.146 2.625-1.413 0.785-0.707c7.489-7.653 16.108-13.676 25.663-17.913 0 0 2.753-1.176 3.606-1.502 0.49-0.189 3.081-1.123 3.081-1.123 1.42-0.49 2.854-0.934 4.306-1.331 72.97-20.512 117.584-80.934 117.584-177.007v-18.546h-326.815v18.546c0 95.321 43.781 155.464 115.671 176.608 8.716 2.229 16.968 5.932 24.6 11.032l1.655 0.876z" />
<glyph unicode="&#xe914;" glyph-name="smiling" horiz-adv-x="1026" d="M1021.363 573c-10.199 31.278-36.92 55.081-73.242 65.198l-244.28 41.283-106.604 224.538-1.603 2.939c-20.956 33.684-51.794 53.043-84.557 53.043-31.437 0-60.8-17.239-82.56-48.522l-125.998-231.956-223.683-39.542c-36.040-10.778-62.479-35.082-72.479-66.662-10.040-31.565-2.801-67.625 19.84-98.883l164.92-177.756-28.518-253.24-0.159-2.278c-1.198-32.922 7.598-60.483 25.318-79.759 25.242-27.438 66.442-32.998 107.32-13.681l218.921 124.841 218.849-124.841c16.522-7.762 32.722-11.72 48.282-11.72 22.999 0 44.001 9.001 59.080 25.4 17.72 19.282 26.481 46.838 25.359 79.759l-28.718 255.519 162.642 175.078 2.243 2.678c22.707 31.345 29.865 67.261 19.625 98.565zM326.441 492.877c0 24.479 18.959 44.339 42.363 44.339 23.322 0 42.322-19.84 42.322-44.339s-19-44.38-42.322-44.38c-23.404 0-42.363 19.881-42.363 44.38zM681.242 312.801c-27.602-58.44-92.401-96.2-164.92-96.2-74.122 0-139.238 37.919-165.919 96.64-4.598 10.081 0.64 21.601 11.643 25.779 2.719 1.060 5.519 1.541 8.279 1.541 8.438 0 16.522-4.582 19.922-12.18 19.999-43.96 69.478-72.361 126.080-72.361 55.322 0 104.52 28.462 125.322 72.422 4.721 9.979 17.439 14.602 28.401 10.26 10.87-4.306 15.913-15.923 11.192-25.902zM663.158 448.497c-23.363 0-42.322 19.881-42.322 44.38 0 24.479 18.959 44.339 42.322 44.339s42.363-19.84 42.363-44.339-19-44.38-42.363-44.38z" />
<glyph unicode="&#xe915;" glyph-name="yes" d="M198.921 606.561l294.895-398.031-141.866-105.106-294.895 398.031 141.866 105.106zM292.669 280.617l612.101 449.375 104.488-142.325-612.101-449.375-104.488 142.325z" />
<glyph unicode="&#xe916;" glyph-name="cog" d="M116.581 355.889c50.367 87.231 20.081 199.034-67.637 249.828l94.337 163.397c26.956-15.796 58.288-24.856 91.727-24.856 100.816 0 182.537 82.26 182.537 183.738h188.674c-0.254-31.321 7.574-63.076 24.335-92.113 50.361-87.237 162.329-116.901 250.177-66.334l94.336-163.397c-27.163-15.438-50.671-38.055-67.396-67.006-50.285-87.103-20.171-198.674 67.22-249.581l-94.337-163.397c-26.863 15.648-58.040 24.616-91.307 24.616-100.489 0-182.001-81.737-182.527-182.773h-188.67c0.076 31.006-7.755 62.412-24.346 91.139-50.283 87.101-161.973 116.807-249.757 66.572l-94.337 163.396c26.985 15.435 50.331 37.966 66.972 66.77zM512 253.632c107.353 0 194.372 87.017 194.372 194.37s-87.017 194.37-194.372 194.37c-107.353 0-194.368-87.017-194.368-194.37 0.002-107.355 87.017-194.37 194.368-194.37z" />
</font>
</defs>
</svg>
